<svg width="414" height="115" viewBox="0 0 414 115" fill="none" xmlns="http://www.w3.org/2000/svg">
<g filter="url(#filter0_d)">
<path d="M47.61 29.7668C17.388 29.0819 4.692 14.1277 0 4.08216V114.697C0 115.245 276 114.926 414 114.697V1C410 21 390.402 29.4244 376.74 29.7668H294.354C275.476 29.7668 256.266 44.6568 236.808 52.3693C220.91 58.6706 199.824 57.278 191.268 55.794C180.09 52.7118 165 44.1122 155.25 39.3558C142.333 33.0545 132.48 30.1093 123.786 29.7668H47.61Z" fill="#107A00"/>
<path d="M47.61 29.7668C17.388 29.0819 4.692 14.1277 0 4.08216V114.697C0 115.245 276 114.926 414 114.697V1C410 21 390.402 29.4244 376.74 29.7668H294.354C275.476 29.7668 256.266 44.6568 236.808 52.3693C220.91 58.6706 199.824 57.278 191.268 55.794C180.09 52.7118 165 44.1122 155.25 39.3558C142.333 33.0545 132.48 30.1093 123.786 29.7668H47.61Z" stroke="black"/>
</g>
<defs>
<filter id="filter0_d" x="-4.5" y="0.901855" width="423" height="122.598" filterUnits="userSpaceOnUse" color-interpolation-filters="sRGB">
<feFlood flood-opacity="0" result="BackgroundImageFix"/>
<feColorMatrix in="SourceAlpha" type="matrix" values="0 0 0 0 0 0 0 0 0 0 0 0 0 0 0 0 0 0 127 0"/>
<feOffset dy="4"/>
<feGaussianBlur stdDeviation="2"/>
<feColorMatrix type="matrix" values="0 0 0 0 0 0 0 0 0 0 0 0 0 0 0 0 0 0 0.25 0"/>
<feBlend mode="normal" in2="BackgroundImageFix" result="effect1_dropShadow"/>
<feBlend mode="normal" in="SourceGraphic" in2="effect1_dropShadow" result="shape"/>
</filter>
</defs>
</svg>
